<svg width="24" height="24" viewBox="0 0 24 24" fill="none" xmlns="http://www.w3.org/2000/svg">
<path d="M19.5029 0.563477V7.18258C19.5029 8.47238 18.4708 9.49998 17.1807 9.49998H6.86503C5.57493 9.50008 4.50293 8.47238 4.50293 7.18258V0.563477M4.50293 3.50008H19.5029M12.0029 15.9911V23.4434M10.5029 9.50008H13.5029V14.5001H10.5029V9.50008ZM11.2776 14.5001H12.7282V15.9911H11.2776V14.5001ZM13.2947 6.57908C13.2947 7.28147 12.7253 7.85088 12.0229 7.85088C11.3205 7.85088 10.7511 7.28147 10.7511 6.57908C10.7511 5.87668 11.3205 5.30728 12.0229 5.30728C12.7253 5.30728 13.2947 5.87668 13.2947 6.57908Z" stroke="black" stroke-linecap="round" stroke-linejoin="round"/>
</svg>
