<?xml version="1.0" encoding="UTF-8"?>
<svg id="Layer_1" data-name="Layer 1" xmlns="http://www.w3.org/2000/svg" viewBox="0 0 28 28">
  <g id="root">
    <path d="M14.57,19.45v-7m3,7h-6v5h1.25l1,1h1.55l1-1h1.2v-5Zm3.25-10.19c0-3.71-3.05-6.71-6.82-6.71s-6.82,3-6.82,6.71c0,1.98,.87,4.16,2.26,5.77h0s1.99,2.57,1.99,4.42h5.15v-.02l.02,.02c0-1.85,1.97-4.43,1.97-4.43,1.38-1.61,2.25-3.78,2.25-5.76Zm-6.67,3.88c-.47,.45-1.41,.24-2.1-.47-.69-.72-.86-1.66-.39-2.12,.47-.45,1.41-.24,2.1,.47s.86,1.66,.39,2.12Zm.53,0c-.47-.45-.3-1.4,.39-2.12,.69-.72,1.63-.93,2.1-.47,.47,.45,.3,1.4-.39,2.12-.69,.72-1.63,.93-2.1,.47Z" style="fill: none; stroke: currentColor; stroke-linecap: round; stroke-linejoin: round;"/>
  </g>
</svg>