<svg width="24" height="24" viewBox="0 0 24 24" fill="none" xmlns="http://www.w3.org/2000/svg">
<g clip-path="url(#clip0_647_2777)">
<path d="M11.5282 17.5207V10.1758M14.5345 17.5207H8.52192V22.5269H9.76362L10.7593 23.5207H12.2971L13.2931 22.5269H14.5345V17.5207ZM18.349 7.32721C18.349 3.62081 15.2952 0.616211 11.5281 0.616211C7.76112 0.616211 4.70752 3.62081 4.70752 7.32721C4.70752 9.30691 5.58202 11.489 6.96772 13.0972L6.96362 13.1019C6.96362 13.1019 8.95432 15.6713 8.95432 17.5208H14.1027V17.4969L14.1275 17.5208C14.1275 15.6713 16.0962 13.0882 16.0962 13.0882C17.4778 11.4812 18.349 9.30321 18.349 7.32721ZM11.2634 10.8501C10.7915 11.3039 9.85091 11.0917 9.16259 10.3759C8.47428 9.66022 8.29886 8.71208 8.7708 8.25822C9.24273 7.80436 10.1833 8.01664 10.8716 8.73236C11.5599 9.44808 11.7353 10.3962 11.2634 10.8501ZM11.7923 10.8495C11.3204 10.3956 11.4958 9.44751 12.1841 8.73179C12.8724 8.01607 13.813 7.80379 14.2849 8.25766C14.7569 8.71152 14.5815 9.65965 13.8931 10.3754C13.2048 11.0911 12.2643 11.3034 11.7923 10.8495Z" stroke="black" stroke-linecap="round" stroke-linejoin="round"/>
</g>
<defs>
<clipPath id="clip0_647_2777">
<rect width="24" height="24" fill="white"/>
</clipPath>
</defs>
</svg>
