<svg width="24" height="24" viewBox="0 0 24 24" fill="none" xmlns="http://www.w3.org/2000/svg">
<path d="M15.3289 9.97268C14.5072 10.5061 13.4263 10.7731 12.3455 10.7731C11.2654 10.7731 10.1846 10.5061 9.3621 9.97268C8.3432 9.31178 6.6877 9.31228 5.6712 9.97268M15.3289 12.5852C14.5072 13.1186 13.4263 13.3856 12.3455 13.3856C11.2654 13.3856 10.1846 13.1186 9.3621 12.5852C8.3432 11.9243 6.6877 11.9248 5.6712 12.5852M2.3071 19.5198V20.1326C2.3071 20.8606 2.8973 21.5198 3.6253 21.5198H4.8179C5.5459 21.5198 6.1361 20.8606 6.1361 20.1326V19.5198M21.4145 19.5198V20.1326C21.4145 20.8606 20.8243 21.5198 20.0963 21.5198H18.9037C18.1757 21.5198 17.5855 20.8606 17.5855 20.1326V19.5198M0.5 3.51978H23.5V19.5198H0.5V3.51978ZM2.5 5.51978H18.5V17.5198H2.5V5.51978ZM21.8572 16.6768C21.8572 17.1422 21.4799 17.5196 21.0144 17.5196C20.5489 17.5196 20.1716 17.1422 20.1716 16.6768C20.1716 16.2113 20.5489 15.834 21.0144 15.834C21.4799 15.834 21.8572 16.2113 21.8572 16.6768Z" stroke="black" stroke-miterlimit="10" stroke-linecap="round" stroke-linejoin="round"/>
</svg>
