<svg width="24" height="24" viewBox="0 0 24 24" fill="none" xmlns="http://www.w3.org/2000/svg">
<g clip-path="url(#clip0_647_2778)">
<path d="M2.5 0.534424H21.5M2.5 0.534424V23.5344H21.5V0.534424M2.5 0.534424V5.53442H21.5V0.534424M18.8435 13.5115C18.8915 13.84 18.9246 14.1731 18.9246 14.5147C18.9246 14.8561 18.8915 15.1889 18.8436 15.5172M18.8435 13.5115C18.3549 10.1682 15.4766 7.59012 11.9999 7.59012C8.1818 7.59012 5.0755 10.6965 5.0755 14.5148C5.0755 18.3333 8.1819 21.4397 11.9999 21.4397C15.4769 21.4397 18.3554 18.861 18.8436 15.5172M18.8435 13.5115H17.2232V15.5173L18.8436 15.5172M12.7341 3.07292C12.7341 3.49851 12.3891 3.84352 11.9635 3.84352C11.5379 3.84352 11.1929 3.49851 11.1929 3.07292C11.1929 2.64733 11.5379 2.30232 11.9635 2.30232C12.3891 2.30232 12.7341 2.64733 12.7341 3.07292ZM12.0269 19.6779C13.6342 19.6779 15.0732 18.973 16.0631 17.8604C14.913 17.3374 13.802 16.5208 12.5585 15.6938C10.9136 14.5996 8.696 15.0333 6.8376 15.7753C7.4881 18.0282 9.5629 19.6779 12.0269 19.6779Z" stroke="black" stroke-miterlimit="10" stroke-linecap="round" stroke-linejoin="round"/>
</g>
<defs>
<clipPath id="clip0_647_2778">
<rect width="24" height="24" fill="white"/>
</clipPath>
</defs>
</svg>
