<?xml version="1.0" encoding="UTF-8"?>
<svg id="Layer_1" data-name="Layer 1" xmlns="http://www.w3.org/2000/svg" viewBox="0 0 28 28">
  <g id="root">
    <path d="M4.5,2.5H23.5M4.5,2.5V25.5H23.5V2.5M4.5,2.5V7.5H23.5V2.5m-2.92,13.36c.05,.33,.08,.66,.08,1s-.03,.67-.08,1m0-2.01c-.49-3.34-3.37-5.92-6.84-5.92-3.82,0-6.92,3.11-6.92,6.92s3.11,6.92,6.92,6.92c3.48,0,6.36-2.58,6.84-5.92m-.08-2.37h-2v2h2M14.47,5.42c0,.43-.35,.77-.77,.77s-.77-.35-.77-.77,.35-.77,.77-.77,.77,.35,.77,.77Zm-.71,16.6c1.61,0,3.05-.7,4.04-1.82-1.15-.52-2.26-1.34-3.5-2.17-1.64-1.09-3.86-.66-5.72,.08,.65,2.25,2.73,3.9,5.19,3.9Z" style="fill: none; stroke: currentColor; stroke-linecap: round; stroke-linejoin: round;"/>
  </g>
</svg>