<?xml version="1.0" encoding="UTF-8"?>
<svg id="Layer_1" data-name="Layer 1" xmlns="http://www.w3.org/2000/svg" viewBox="0 0 28 28">
  <g id="root">
    <path d="M14.21,11.16l2.73,13.94h-5.87l2.73-13.94m-5.58-5.91c-2.8,2.62-2.8,7.03,0,9.65M5.87,2.91c-4.09,3.92-4.09,10.41,0,14.33m4.68-4.68c-1.51-1.32-1.51-3.65,0-4.97m9.24,7.31c2.8-2.62,2.8-7.03,0-9.65m2.34,11.99c4.09-3.92,4.09-10.41,0-14.33m-4.68,4.68c1.51,1.32,1.51,3.65,0,4.97m-2.33-2.49c0,.62-.5,1.12-1.12,1.12s-1.12-.5-1.12-1.12,.5-1.12,1.12-1.12,1.12,.5,1.12,1.12Z" style="fill: none; stroke: currentColor; stroke-linecap: round; stroke-linejoin: round;"/>
  </g>
</svg>