<svg width="24" height="24" viewBox="0 0 24 24" fill="none" xmlns="http://www.w3.org/2000/svg">
<g clip-path="url(#clip0_647_2775)">
<path d="M12.2052 9.56422L14.9347 23.4999H9.06549L11.7937 9.56422M6.21239 3.63892C3.40979 6.26322 3.41419 10.6715 6.21239 13.2916M3.87279 1.29932C-0.217915 5.21472 -0.222015 11.712 3.87279 15.6313M8.55199 10.952C7.04349 9.62982 7.04449 7.30002 8.55199 5.97862M17.7878 13.2916C20.5904 10.6673 20.586 6.25902 17.7878 3.63892M20.1275 15.6313C24.2182 11.7159 24.2223 5.21862 20.1275 1.29932M15.4482 5.97862C16.9567 7.30082 16.9557 9.63062 15.4482 10.952M13.1188 8.46532C13.1188 9.08305 12.618 9.58382 12.0003 9.58382C11.3826 9.58382 10.8818 9.08305 10.8818 8.46532C10.8818 7.84759 11.3826 7.34682 12.0003 7.34682C12.618 7.34682 13.1188 7.84759 13.1188 8.46532Z" stroke="black" stroke-miterlimit="10" stroke-linecap="round" stroke-linejoin="round"/>
</g>
<defs>
<clipPath id="clip0_647_2775">
<rect width="24" height="24" fill="white"/>
</clipPath>
</defs>
</svg>
